<svg width="51" height="51" viewBox="0 0 51 51" fill="none" xmlns="http://www.w3.org/2000/svg">
<path d="M15.2999 40.8C12.4822 40.8 10.2255 43.0822 10.2255 45.9C10.2255 48.7177 12.4822 51 15.2999 51C18.1177 51 20.4 48.7177 20.4 45.9C20.4 43.0822 18.1177 40.8 15.2999 40.8ZM-4.95911e-05 0V5.1H5.09995L14.2672 24.4417L10.8247 30.6892C10.4295 31.4287 10.2 32.2575 10.2 33.15C10.2 35.9677 12.4822 38.25 15.2999 38.25H45.8999V33.15H16.3837C16.0267 33.15 15.7462 32.8695 15.7462 32.5125C15.7462 32.3978 15.7717 32.2957 15.8227 32.2065L18.105 28.05H37.1025C39.0149 28.05 40.6852 26.9918 41.5649 25.4235L50.6812 8.874C50.8852 8.517 51 8.09625 51 7.65C51 6.9737 50.7313 6.3251 50.2531 5.84688C49.7749 5.36866 49.1263 5.1 48.45 5.1H10.7482L8.3257 0H-4.95911e-05ZM40.7999 40.8C37.9822 40.8 35.7254 43.0822 35.7254 45.9C35.7254 48.7177 37.9822 51 40.7999 51C43.6177 51 45.8999 48.7177 45.8999 45.9C45.8999 43.0822 43.6177 40.8 40.7999 40.8Z" fill="white"/>
</svg>
